HIERARCHY
ROOT joint_Root
{
	OFFSET 0.0 0.0 0.0
	CHANNELS 6 Xposition Yposition Zposition Zrotation Xrotation Yrotation 
	JOINT Hips
	{
		OFFSET -17.1583 93.1646 452.98
		CHANNELS 6 Xposition Yposition Zposition Zrotation Xrotation Yrotation 
		JOINT Spine
		{
			OFFSET 15.7357 0.0 0.0
			CHANNELS 6 Xposition Yposition Zposition Zrotation Xrotation Yrotation 
			JOINT Chest
			{
				OFFSET 8.98455 -0.406207 0.0
				CHANNELS 6 Xposition Yposition Zposition Zrotation Xrotation Yrotation 
				JOINT Neck
				{
					OFFSET 16.3773 0.0 0.0
					CHANNELS 6 Xposition Yposition Zposition Zrotation Xrotation Yrotation 
					JOINT Head
					{
						OFFSET 6.45672 0.0 0.0
						CHANNELS 6 Xposition Yposition Zposition Zrotation Xrotation Yrotation 
						End Site
						{
							OFFSET 0.0 0.0 0.0
						}
					}
				}
				JOINT Shoulder_L
				{
					OFFSET 12.9942 -0.242716 4.98039
					CHANNELS 6 Xposition Yposition Zposition Zrotation Xrotation Yrotation 
					JOINT UpperArm_L
					{
						OFFSET 5.34809 0.0 0.0
						CHANNELS 6 Xposition Yposition Zposition Zrotation Xrotation Yrotation 
						JOINT LowerArm_L
						{
							OFFSET 24.3286 1.87007e-05 0.0
							CHANNELS 6 Xposition Yposition Zposition Zrotation Xrotation Yrotation 
							JOINT Hand_L
							{
								OFFSET 22.2916 0.0 0.0
								CHANNELS 6 Xposition Yposition Zposition Zrotation Xrotation Yrotation 
								End Site
								{
									OFFSET 0.0 0.0 0.0
								}
							}
						}
					}
				}
				JOINT Shoulder_R
				{
					OFFSET 12.9945 -0.242716 -4.98039
					CHANNELS 6 Xposition Yposition Zposition Zrotation Xrotation Yrotation 
					JOINT UpperArm_R
					{
						OFFSET -5.34813 0.0 0.0
						CHANNELS 6 Xposition Yposition Zposition Zrotation Xrotation Yrotation 
						JOINT LowerArm_R
						{
							OFFSET -24.3289 0.000322201 0.0
							CHANNELS 6 Xposition Yposition Zposition Zrotation Xrotation Yrotation 
							JOINT Hand_R
							{
								OFFSET -22.2915 -0.000108084 0.0
								CHANNELS 6 Xposition Yposition Zposition Zrotation Xrotation Yrotation 
								End Site
								{
									OFFSET 0.0 0.0 0.0
								}
							}
						}
					}
				}
			}
		}
		JOINT UpperLeg_L
		{
			OFFSET -2.19248 -6.46944 0.0
			CHANNELS 6 Xposition Yposition Zposition Zrotation Xrotation Yrotation 
			JOINT LowerLeg_L
			{
				OFFSET 39.0811 0.0 -1.23785e-05
				CHANNELS 6 Xposition Yposition Zposition Zrotation Xrotation Yrotation 
				JOINT Foot_L
				{
					OFFSET 40.9854 0.0 -1.26872e-05
					CHANNELS 6 Xposition Yposition Zposition Zrotation Xrotation Yrotation 
					JOINT Toes_L
					{
						OFFSET 11.7543 0.0 0.0
						CHANNELS 6 Xposition Yposition Zposition Zrotation Xrotation Yrotation 
						End Site
						{
							OFFSET 0.0 0.0 0.0
						}
					}
				}
			}
		}
		JOINT UpperLeg_R
		{
			OFFSET -2.19251 6.46944 0.0
			CHANNELS 6 Xposition Yposition Zposition Zrotation Xrotation Yrotation 
			JOINT LowerLeg_R
			{
				OFFSET -39.0811 -0.00228153 -0.0401928
				CHANNELS 6 Xposition Yposition Zposition Zrotation Xrotation Yrotation 
				JOINT Foot_R
				{
					OFFSET -40.9854 0.0 0.0
					CHANNELS 6 Xposition Yposition Zposition Zrotation Xrotation Yrotation 
					JOINT Toes_R
					{
						OFFSET -11.7543 0.0 0.0
						CHANNELS 6 Xposition Yposition Zposition Zrotation Xrotation Yrotation 
						End Site
						{
							OFFSET 0.0 0.0 0.0
						}
					}
				}
			}
		}
	}
}
MOTION
Frames:	7
Frame Time:	0.0333333
0.000000 0.000000 0.000000 0.000000 0.000000 -0.000000 -1.527140 92.280800 -0.319705 84.140700 0.132761 2.803410 15.735700 0.000005 -0.000001 61.849800 87.664300 -57.732600 8.984550 -0.406207 -0.000000 -3.541840 -2.608480 8.157470 16.377300 -0.000001 -0.000001 10.976100 1.543320 8.805770 6.456720 -0.000001 -0.000000 7.388780 5.322180 18.598100 12.994200 -0.242716 4.980390 -91.371300 3.910400 -70.657500 5.348090 -0.000007 -0.000001 -77.404600 -2.446020 -7.498620 24.328600 0.000019 0.000005 42.210300 -43.214400 -127.048000 22.291600 -0.000001 0.000005 44.279100 5.081530 5.533590 12.994500 -0.242716 -4.980390 87.449000 6.762550 -69.275800 -5.348130 -0.000001 -0.000004 -67.573900 0.649769 -8.160140 -24.328900 0.000322 -0.000009 20.143300 -23.490400 -137.378000 -22.291500 -0.000108 -0.000004 54.105500 5.650140 -15.028000 -2.192480 -6.469440 -0.000000 -173.461000 1.908400 -4.011830 39.081100 -0.000007 -0.000012 0.361415 -0.729803 26.346600 40.985400 -0.000006 -0.000013 1.951200 6.520770 -75.642100 11.754300 -0.000000 0.000003 -0.000009 0.167780 -9.771720 -2.192510 6.469440 -0.000001 -171.883000 6.715590 -177.618000 -39.081100 -0.002282 -0.040193 0.051176 -0.181165 14.793900 -40.985400 0.000008 0.000006 1.065080 2.699550 -69.899100 -11.754300 -0.000006 -0.000006 -0.011522 0.282348 -5.099070
0.000000 0.000000 0.000000 0.000000 0.000000 -0.000000 -1.510030 92.285800 -0.305551 84.154200 0.060359 2.769210 15.735700 0.000005 -0.000001 61.973000 87.677700 -57.859400 8.984550 -0.406207 -0.000000 -3.561570 -2.587410 8.150720 16.377300 -0.000001 -0.000001 10.940200 1.534910 8.763650 6.456720 -0.000001 -0.000000 7.368440 5.276540 18.532200 12.994200 -0.242716 4.980390 -91.375900 3.926040 -70.669700 5.348090 -0.000007 -0.000001 -77.420000 -2.533840 -7.473200 24.328600 0.000019 0.000005 42.590900 -43.385600 -126.769000 22.291600 -0.000001 0.000005 44.353400 5.072870 5.728460 12.994500 -0.242716 -4.980390 87.450200 6.751370 -69.253300 -5.348130 -0.000001 -0.000004 -67.584900 0.737440 -8.171650 -24.328900 0.000322 -0.000009 20.064600 -23.380400 -137.373000 -22.291500 -0.000108 -0.000004 54.041500 5.650800 -15.092200 -2.192480 -6.469440 -0.000000 -173.491000 1.814540 -3.989980 39.081100 -0.000007 -0.000012 0.363816 -0.736479 26.290000 40.985400 -0.000006 -0.000013 1.965430 6.508780 -75.630900 11.754300 -0.000000 0.000003 -0.000055 0.168544 -9.740730 -2.192510 6.469440 -0.000001 -171.911000 6.642520 -177.625000 -39.081100 -0.002282 -0.040193 0.050074 -0.177364 14.764300 -40.985400 0.000008 0.000006 1.048720 2.714760 -69.873700 -11.754300 -0.000006 -0.000006 -0.011437 0.281747 -5.123680
0.000000 0.000000 0.000000 0.000000 0.000000 -0.000000 -1.491400 92.291000 -0.295770 84.188700 -0.024270 2.759190 15.735700 0.000005 -0.000001 62.002300 87.669100 -57.903400 8.984550 -0.406207 -0.000000 -3.545590 -2.591340 8.121350 16.377300 -0.000001 -0.000001 10.913200 1.540370 8.774760 6.456720 -0.000001 -0.000000 7.308030 5.277720 18.432100 12.994200 -0.242716 4.980390 -91.381700 3.929880 -70.612000 5.348090 -0.000007 -0.000001 -77.427200 -2.629080 -7.489370 24.328600 0.000019 0.000005 42.468300 -43.314800 -126.851000 22.291600 -0.000001 0.000005 44.505800 5.076780 5.640190 12.994500 -0.242716 -4.980390 87.444600 6.763550 -69.245700 -5.348130 -0.000001 -0.000004 -67.589100 0.791233 -8.210640 -24.328900 0.000322 -0.000009 20.130000 -23.420400 -137.318000 -22.291500 -0.000108 -0.000004 54.116900 5.650230 -15.038300 -2.192480 -6.469440 -0.000000 -173.536000 1.784120 -3.948180 39.081100 -0.000007 -0.000012 0.358580 -0.728013 26.223300 40.985400 -0.000006 -0.000013 1.968050 6.476200 -75.593800 11.754300 -0.000000 0.000003 -0.000006 0.167724 -9.774030 -2.192510 6.469440 -0.000001 -171.956000 6.542790 -177.627000 -39.081100 -0.002282 -0.040193 0.050445 -0.178500 14.785700 -40.985400 0.000008 0.000006 0.975082 2.718070 -69.909900 -11.754300 -0.000006 -0.000006 -0.011582 0.282772 -5.081710
0.000000 0.000000 0.000000 0.000000 0.000000 -0.000000 -1.484500 92.298400 -0.298542 84.195100 -0.045867 2.701580 15.735700 0.000005 -0.000001 61.874100 87.676300 -57.778000 8.984550 -0.406207 -0.000000 -3.563260 -2.594080 8.115300 16.377300 -0.000001 -0.000001 10.890700 1.556840 8.752480 6.456720 -0.000001 -0.000000 7.270460 5.267230 18.413400 12.994200 -0.242716 4.980390 -91.376000 3.922460 -70.651900 5.348090 -0.000007 -0.000001 -77.473300 -2.729140 -7.485650 24.328600 0.000019 0.000005 42.306400 -43.239900 -126.969000 22.291600 -0.000001 0.000005 44.522700 5.073020 5.724770 12.994500 -0.242716 -4.980390 87.449800 6.744970 -69.232300 -5.348130 -0.000001 -0.000004 -67.621500 0.822177 -8.196260 -24.328900 0.000322 -0.000009 20.185700 -23.470400 -137.289000 -22.291500 -0.000108 -0.000004 54.149500 5.647650 -14.803500 -2.192480 -6.469440 -0.000000 -173.554000 1.747180 -3.979750 39.081100 -0.000007 -0.000012 0.360546 -0.733616 26.173400 40.985400 -0.000006 -0.000013 1.968230 6.447010 -75.551900 11.754300 -0.000000 0.000003 0.000102 0.165894 -9.848340 -2.192510 6.469440 -0.000001 -171.972000 6.548110 -177.670000 -39.081100 -0.002282 -0.040193 0.049181 -0.174261 14.741000 -40.985400 0.000008 0.000006 0.948639 2.765010 -69.843700 -11.754300 -0.000006 -0.000006 -0.011430 0.281699 -5.125660
0.000000 0.000000 0.000000 0.000000 0.000000 -0.000000 -1.487740 92.307900 -0.298506 84.182000 -0.111282 2.651980 15.735700 0.000005 -0.000001 61.822400 87.667000 -57.720500 8.984550 -0.406207 -0.000000 -3.548240 -2.606590 8.126830 16.377300 -0.000001 -0.000001 10.847700 1.539960 8.789270 6.456720 -0.000001 -0.000000 7.255070 5.265180 18.304400 12.994200 -0.242716 4.980390 -91.384400 3.937420 -70.610600 5.348090 -0.000007 -0.000001 -77.500800 -2.871740 -7.578910 24.328600 0.000019 0.000005 42.308500 -43.213800 -126.953000 22.291600 -0.000001 0.000005 44.490700 5.069570 5.802210 12.994500 -0.242716 -4.980390 87.454700 6.728750 -69.223600 -5.348130 -0.000001 -0.000004 -67.634600 0.851878 -8.237550 -24.328900 0.000322 -0.000009 20.097000 -23.367500 -137.308000 -22.291500 -0.000108 -0.000004 54.146200 5.647740 -14.803400 -2.192480 -6.469440 -0.000000 -173.531000 1.693750 -3.995010 39.081100 -0.000007 -0.000012 0.359535 -0.733148 26.124200 40.985400 -0.000006 -0.000013 1.960720 6.452280 -75.546300 11.754300 -0.000000 0.000003 -0.000088 0.169087 -9.718670 -2.192510 6.469440 -0.000001 -171.963000 6.466390 -177.680000 -39.081100 -0.002282 -0.040193 0.046594 -0.165264 14.669800 -40.985400 0.000008 0.000006 0.847890 2.793870 -69.782700 -11.754300 -0.000006 -0.000006 -0.011528 0.282389 -5.097380
0.000000 0.000000 0.000000 0.000000 0.000000 -0.000000 -1.487330 92.312200 -0.308717 84.211200 -0.158073 2.602000 15.735700 0.000005 -0.000001 61.742600 87.661900 -57.651400 8.984550 -0.406207 -0.000000 -3.542320 -2.615870 8.105320 16.377300 -0.000001 -0.000001 10.844100 1.551540 8.777440 6.456720 -0.000001 -0.000000 7.184950 5.251060 18.314200 12.994200 -0.242716 4.980390 -91.382900 3.941390 -70.648200 5.348090 -0.000007 -0.000001 -77.472700 -3.080700 -7.564480 24.328600 0.000019 0.000005 42.213000 -43.138200 -127.007000 22.291600 -0.000001 0.000005 44.589800 5.077370 5.627340 12.994500 -0.242716 -4.980390 87.457500 6.726090 -69.237000 -5.348130 -0.000001 -0.000004 -67.612100 0.866944 -8.214640 -24.328900 0.000322 -0.000009 20.128500 -23.382400 -137.276000 -22.291500 -0.000108 -0.000004 54.228300 5.648200 -14.846200 -2.192480 -6.469440 -0.000000 -173.564000 1.707950 -4.016780 39.081100 -0.000007 -0.000012 0.355730 -0.726888 26.077400 40.985400 -0.000006 -0.000013 1.938830 6.376440 -75.514900 11.754300 -0.000000 0.000003 0.000028 0.167159 -9.796960 -2.192510 6.469440 -0.000001 -171.979000 6.429390 -177.736000 -39.081100 -0.002282 -0.040193 0.047989 -0.170571 14.671700 -40.985400 0.000008 0.000006 0.905559 2.798850 -69.801300 -11.754300 -0.000006 -0.000006 -0.011580 0.282755 -5.082430
0.000000 0.000000 0.000000 0.000000 0.000000 -0.000000 -1.498480 92.317300 -0.318026 84.223200 -0.206952 2.529010 15.735700 0.000005 -0.000001 61.813700 87.656400 -57.727300 8.984550 -0.406207 -0.000000 -3.529910 -2.615110 8.095890 16.377300 -0.000001 -0.000001 10.833100 1.564130 8.778970 6.456720 -0.000001 -0.000000 7.100550 5.224670 18.302200 12.994200 -0.242716 4.980390 -91.374300 3.915720 -70.643100 5.348090 -0.000007 -0.000001 -77.495800 -3.192770 -7.615720 24.328600 0.000019 0.000005 42.540700 -43.253500 -126.750000 22.291600 -0.000001 0.000005 44.648700 5.072390 5.739500 12.994500 -0.242716 -4.980390 87.469400 6.696330 -69.242400 -5.348130 -0.000001 -0.000004 -67.642900 0.891033 -8.236440 -24.328900 0.000322 -0.000009 20.060100 -23.305100 -137.293000 -22.291500 -0.000108 -0.000004 54.300000 5.648770 -14.899700 -2.192480 -6.469440 -0.000000 -173.581000 1.705410 -4.073590 39.081100 -0.000007 -0.000012 0.358546 -0.733655 26.046200 40.985400 -0.000006 -0.000013 1.924220 6.332830 -75.502800 11.754300 -0.000000 0.000003 0.000088 0.166123 -9.839030 -2.192510 6.469440 -0.000001 -171.982000 6.434280 -177.801000 -39.081100 -0.002282 -0.040193 0.047780 -0.170037 14.649900 -40.985400 0.000008 0.000006 0.908806 2.858440 -69.781300 -11.754300 -0.000006 -0.000006 -0.011478 0.282035 -5.111890
